<svg width="321" height="65" viewBox="0 0 321 65" fill="none" xmlns="http://www.w3.org/2000/svg">
<g filter="url(#filter0_d_9_200)">
<path d="M72.0179 28.8421C72.7804 28.9625 73.4726 29.2735 74.0947 29.7752C74.7367 30.2768 75.2384 30.8988 75.5995 31.6412C75.9808 32.3836 76.1714 33.1762 76.1714 34.0189C76.1714 35.0824 75.9005 36.0455 75.3588 36.9083C74.817 37.7511 74.0244 38.4232 72.981 38.9249C71.9577 39.4064 70.7438 39.6472 69.3392 39.6472H61.5138V18.6691H69.0382C70.4629 18.6691 71.6768 18.9099 72.6801 19.3915C73.6833 19.853 74.4358 20.485 74.9374 21.2876C75.439 22.0902 75.6898 22.9932 75.6898 23.9964C75.6898 25.2404 75.3487 26.2738 74.6665 27.0965C74.0044 27.8991 73.1215 28.481 72.0179 28.8421ZM64.2527 27.7285H68.8577C70.1418 27.7285 71.135 27.4275 71.8373 26.8256C72.5396 26.2236 72.8907 25.3909 72.8907 24.3275C72.8907 23.264 72.5396 22.4313 71.8373 21.8294C71.135 21.2274 70.1218 20.9264 68.7975 20.9264H64.2527V27.7285ZM69.0984 37.3899C70.4629 37.3899 71.5263 37.0688 72.2888 36.4268C73.0513 35.7847 73.4325 34.8918 73.4325 33.7481C73.4325 32.5843 73.0312 31.6713 72.2286 31.0092C71.426 30.327 70.3525 29.9859 69.0081 29.9859H64.2527V37.3899H69.0984ZM82.7111 17.3749V39.6472H79.9722V17.3749H82.7111ZM102.007 23.1537V39.6472H99.2676V37.2093C98.7459 38.052 98.0135 38.7142 97.0705 39.1958C96.1475 39.6572 95.1242 39.888 94.0005 39.888C92.7164 39.888 91.5626 39.6272 90.5393 39.1055C89.516 38.5637 88.7033 37.7611 88.1014 36.6976C87.5195 35.6342 87.2285 34.34 87.2285 32.815V23.1537H89.9373V32.4539C89.9373 34.0791 90.3487 35.3332 91.1713 36.2161C91.994 37.0789 93.1177 37.5103 94.5423 37.5103C96.007 37.5103 97.1608 37.0588 98.0035 36.1559C98.8463 35.253 99.2676 33.9387 99.2676 32.2131V23.1537H102.007ZM121.68 30.7684C121.68 31.2901 121.65 31.8419 121.59 32.4238H108.407C108.507 34.049 109.059 35.3232 110.062 36.2462C111.085 37.1491 112.319 37.6006 113.764 37.6006C114.948 37.6006 115.931 37.3297 116.714 36.7879C117.516 36.2261 118.078 35.4837 118.399 34.5607H121.349C120.907 36.1459 120.024 37.4401 118.7 38.4433C117.376 39.4265 115.731 39.9181 113.764 39.9181C112.199 39.9181 110.794 39.567 109.55 38.8647C108.326 38.1624 107.363 37.1692 106.661 35.885C105.959 34.5808 105.608 33.0759 105.608 31.3703C105.608 29.6648 105.949 28.17 106.631 26.8858C107.313 25.6016 108.266 24.6184 109.49 23.9362C110.734 23.2339 112.159 22.8828 113.764 22.8828C115.329 22.8828 116.714 23.2239 117.918 23.9061C119.122 24.5883 120.045 25.5314 120.687 26.7353C121.349 27.9191 121.68 29.2635 121.68 30.7684ZM118.851 30.1965C118.851 29.1532 118.62 28.2603 118.158 27.5178C117.697 26.7554 117.065 26.1835 116.262 25.8023C115.48 25.401 114.607 25.2003 113.644 25.2003C112.259 25.2003 111.075 25.6418 110.092 26.5246C109.129 27.4075 108.577 28.6315 108.437 30.1965H118.851Z" fill="white"/>
<path d="M139.971 39.8579C138.586 39.8579 137.342 39.6171 136.239 39.1356C135.155 38.6339 134.302 37.9517 133.68 37.0889C133.058 36.206 132.737 35.1928 132.717 34.049H135.637C135.737 35.0322 136.138 35.8649 136.841 36.5472C137.563 37.2093 138.606 37.5404 139.971 37.5404C141.275 37.5404 142.298 37.2193 143.041 36.5773C143.803 35.9151 144.184 35.0724 144.184 34.049C144.184 33.2464 143.964 32.5943 143.522 32.0927C143.081 31.5911 142.529 31.2098 141.867 30.949C141.205 30.6881 140.312 30.4072 139.188 30.1062C137.804 29.7451 136.69 29.3839 135.847 29.0227C135.025 28.6616 134.312 28.0997 133.71 27.3373C133.129 26.5547 132.838 25.5113 132.838 24.2071C132.838 23.0634 133.129 22.0501 133.71 21.1672C134.292 20.2844 135.105 19.6021 136.148 19.1206C137.212 18.639 138.426 18.3982 139.79 18.3982C141.757 18.3982 143.362 18.8898 144.606 19.873C145.87 20.8562 146.582 22.1605 146.743 23.7857H143.733C143.633 22.9831 143.211 22.2808 142.469 21.6789C141.726 21.0569 140.743 20.7459 139.519 20.7459C138.376 20.7459 137.443 21.0468 136.72 21.6488C135.998 22.2307 135.637 23.0533 135.637 24.1168C135.637 24.8793 135.847 25.5013 136.269 25.9829C136.71 26.4644 137.242 26.8356 137.864 27.0965C138.506 27.3373 139.399 27.6182 140.543 27.9392C141.927 28.3204 143.041 28.7017 143.883 29.0829C144.726 29.4441 145.449 30.016 146.05 30.7985C146.652 31.561 146.953 32.6044 146.953 33.9287C146.953 34.952 146.683 35.9151 146.141 36.818C145.599 37.721 144.796 38.4533 143.733 39.0152C142.67 39.577 141.415 39.8579 139.971 39.8579ZM149.961 31.3403C149.961 29.6548 150.302 28.18 150.984 26.9159C151.666 25.6317 152.599 24.6385 153.783 23.9362C154.987 23.2339 156.321 22.8828 157.786 22.8828C159.231 22.8828 160.485 23.1938 161.548 23.8158C162.612 24.4378 163.404 25.2204 163.926 26.1634V23.1537H166.695V39.6472H163.926V36.5773C163.384 37.5404 162.572 38.343 161.488 38.9851C160.425 39.6071 159.181 39.9181 157.756 39.9181C156.291 39.9181 154.967 39.5569 153.783 38.8346C152.599 38.1122 151.666 37.0989 150.984 35.7947C150.302 34.4905 149.961 33.0057 149.961 31.3403ZM163.926 31.3703C163.926 30.1263 163.675 29.0428 163.174 28.1198C162.672 27.1968 161.99 26.4945 161.127 26.013C160.284 25.5113 159.351 25.2605 158.328 25.2605C157.304 25.2605 156.371 25.5013 155.529 25.9829C154.686 26.4644 154.014 27.1667 153.512 28.0897C153.011 29.0127 152.76 30.0962 152.76 31.3403C152.76 32.6044 153.011 33.7079 153.512 34.651C154.014 35.574 154.686 36.2863 155.529 36.7879C156.371 37.2695 157.304 37.5103 158.328 37.5103C159.351 37.5103 160.284 37.2695 161.127 36.7879C161.99 36.2863 162.672 35.574 163.174 34.651C163.675 33.7079 163.926 32.6144 163.926 31.3703ZM174.062 17.3749V39.6472H171.323V17.3749H174.062ZM177.707 31.3403C177.707 29.6548 178.048 28.18 178.73 26.9159C179.412 25.6317 180.345 24.6385 181.529 23.9362C182.733 23.2339 184.068 22.8828 185.532 22.8828C186.977 22.8828 188.231 23.1938 189.295 23.8158C190.358 24.4378 191.151 25.2204 191.672 26.1634V23.1537H194.441V39.6472H191.672V36.5773C191.131 37.5404 190.318 38.343 189.234 38.9851C188.171 39.6071 186.927 39.9181 185.502 39.9181C184.037 39.9181 182.713 39.5569 181.529 38.8346C180.345 38.1122 179.412 37.0989 178.73 35.7947C178.048 34.4905 177.707 33.0057 177.707 31.3403ZM191.672 31.3703C191.672 30.1263 191.421 29.0428 190.92 28.1198C190.418 27.1968 189.736 26.4945 188.873 26.013C188.03 25.5113 187.097 25.2605 186.074 25.2605C185.051 25.2605 184.118 25.5013 183.275 25.9829C182.432 26.4644 181.76 27.1667 181.258 28.0897C180.757 29.0127 180.506 30.0962 180.506 31.3403C180.506 32.6044 180.757 33.7079 181.258 34.651C181.76 35.574 182.432 36.2863 183.275 36.7879C184.118 37.2695 185.051 37.5103 186.074 37.5103C187.097 37.5103 188.03 37.2695 188.873 36.7879C189.736 36.2863 190.418 35.574 190.92 34.651C191.421 33.7079 191.672 32.6144 191.672 31.3703ZM218.904 22.8527C220.188 22.8527 221.332 23.1236 222.335 23.6653C223.339 24.187 224.131 24.9796 224.713 26.0431C225.295 27.1065 225.586 28.4007 225.586 29.9257V39.6472H222.877V30.3169C222.877 28.6716 222.466 27.4175 221.643 26.5547C220.84 25.6718 219.747 25.2304 218.362 25.2304C216.938 25.2304 215.804 25.6919 214.961 26.6149C214.119 27.5178 213.697 28.8321 213.697 30.5577V39.6472H210.988V30.3169C210.988 28.6716 210.577 27.4175 209.754 26.5547C208.952 25.6718 207.858 25.2304 206.474 25.2304C205.049 25.2304 203.915 25.6919 203.073 26.6149C202.23 27.5178 201.809 28.8321 201.809 30.5577V39.6472H199.07V23.1537H201.809V25.5314C202.35 24.6686 203.073 24.0064 203.976 23.5449C204.899 23.0834 205.912 22.8527 207.016 22.8527C208.4 22.8527 209.624 23.1637 210.687 23.7857C211.751 24.4077 212.543 25.3207 213.065 26.5246C213.527 25.3608 214.289 24.4579 215.353 23.8158C216.416 23.1737 217.6 22.8527 218.904 22.8527ZM229.055 31.3403C229.055 29.6548 229.396 28.18 230.079 26.9159C230.761 25.6317 231.694 24.6385 232.878 23.9362C234.082 23.2339 235.416 22.8828 236.881 22.8828C238.325 22.8828 239.579 23.1938 240.643 23.8158C241.706 24.4378 242.499 25.2204 243.021 26.1634V23.1537H245.79V39.6472H243.021V36.5773C242.479 37.5404 241.666 38.343 240.583 38.9851C239.519 39.6071 238.275 39.9181 236.851 39.9181C235.386 39.9181 234.062 39.5569 232.878 38.8346C231.694 38.1122 230.761 37.0989 230.079 35.7947C229.396 34.4905 229.055 33.0057 229.055 31.3403ZM243.021 31.3703C243.021 30.1263 242.77 29.0428 242.268 28.1198C241.767 27.1968 241.084 26.4945 240.222 26.013C239.379 25.5113 238.446 25.2605 237.422 25.2605C236.399 25.2605 235.466 25.5013 234.623 25.9829C233.781 26.4644 233.108 27.1667 232.607 28.0897C232.105 29.0127 231.854 30.0962 231.854 31.3403C231.854 32.6044 232.105 33.7079 232.607 34.651C233.108 35.574 233.781 36.2863 234.623 36.7879C235.466 37.2695 236.399 37.5103 237.422 37.5103C238.446 37.5103 239.379 37.2695 240.222 36.7879C241.084 36.2863 241.767 35.574 242.268 34.651C242.77 33.7079 243.021 32.6144 243.021 31.3703ZM258.454 22.8527C260.461 22.8527 262.086 23.4647 263.33 24.6887C264.574 25.8926 265.196 27.6382 265.196 29.9257V39.6472H262.487V30.3169C262.487 28.6716 262.076 27.4175 261.253 26.5547C260.431 25.6718 259.307 25.2304 257.882 25.2304C256.438 25.2304 255.284 25.6819 254.421 26.5848C253.578 27.4877 253.157 28.802 253.157 30.5276V39.6472H250.418V23.1537H253.157V25.5013C253.699 24.6586 254.431 24.0064 255.354 23.5449C256.297 23.0834 257.33 22.8527 258.454 22.8527ZM268.647 31.3403C268.647 29.6548 268.988 28.18 269.67 26.9159C270.352 25.6317 271.285 24.6385 272.469 23.9362C273.673 23.2339 275.017 22.8828 276.502 22.8828C277.786 22.8828 278.98 23.1838 280.084 23.7857C281.187 24.3676 282.03 25.1401 282.612 26.1033V17.3749H285.381V39.6472H282.612V36.5472C282.07 37.5303 281.268 38.343 280.204 38.9851C279.141 39.6071 277.897 39.9181 276.472 39.9181C275.007 39.9181 273.673 39.5569 272.469 38.8346C271.285 38.1122 270.352 37.0989 269.67 35.7947C268.988 34.4905 268.647 33.0057 268.647 31.3403ZM282.612 31.3703C282.612 30.1263 282.361 29.0428 281.86 28.1198C281.358 27.1968 280.676 26.4945 279.813 26.013C278.97 25.5113 278.037 25.2605 277.014 25.2605C275.991 25.2605 275.057 25.5013 274.215 25.9829C273.372 26.4644 272.7 27.1667 272.198 28.0897C271.697 29.0127 271.446 30.0962 271.446 31.3403C271.446 32.6044 271.697 33.7079 272.198 34.651C272.7 35.574 273.372 36.2863 274.215 36.7879C275.057 37.2695 275.991 37.5103 277.014 37.5103C278.037 37.5103 278.97 37.2695 279.813 36.7879C280.676 36.2863 281.358 35.574 281.86 34.651C282.361 33.7079 282.612 32.6144 282.612 31.3703ZM305.058 30.7684C305.058 31.2901 305.028 31.8419 304.968 32.4238H291.785C291.886 34.049 292.437 35.3232 293.441 36.2462C294.464 37.1491 295.698 37.6006 297.143 37.6006C298.326 37.6006 299.31 37.3297 300.092 36.7879C300.895 36.2261 301.457 35.4837 301.778 34.5607H304.727C304.286 36.1459 303.403 37.4401 302.079 38.4433C300.754 39.4265 299.109 39.9181 297.143 39.9181C295.578 39.9181 294.173 39.567 292.929 38.8647C291.705 38.1624 290.742 37.1692 290.04 35.885C289.337 34.5808 288.986 33.0759 288.986 31.3703C288.986 29.6648 289.327 28.17 290.009 26.8858C290.692 25.6016 291.645 24.6184 292.869 23.9362C294.113 23.2339 295.537 22.8828 297.143 22.8828C298.708 22.8828 300.092 23.2239 301.296 23.9061C302.5 24.5883 303.423 25.5314 304.065 26.7353C304.727 27.9191 305.058 29.2635 305.058 30.7684ZM302.229 30.1965C302.229 29.1532 301.998 28.2603 301.537 27.5178C301.075 26.7554 300.443 26.1835 299.641 25.8023C298.858 25.401 297.985 25.2003 297.022 25.2003C295.638 25.2003 294.454 25.6418 293.471 26.5246C292.508 27.4075 291.956 28.6315 291.815 30.1965H302.229ZM311.412 25.8324C311.894 24.8893 312.576 24.1569 313.459 23.6352C314.362 23.1135 315.456 22.8527 316.74 22.8527V25.6819H316.017C312.947 25.6819 311.412 27.3473 311.412 30.6781V39.6472H308.674V23.1537H311.412V25.8324Z" fill="black"/>
<g filter="url(#filter1_i_9_200)">
<path d="M37.8756 30.1339C42.0979 27.4084 45.7841 39.8778 40.1192 46.612C38.599 50.0158 33.2546 52.8263 28.3158 52.8263H8.25V4H28.3158C32.4348 4 36.0599 6.67305 37.8756 10.3252C38.5506 11.7953 38.7656 12.5569 39.0462 13.8762" stroke="black" stroke-width="7" stroke-linecap="round"/>
</g>
<g filter="url(#filter2_i_9_200)">
<path d="M39.2238 14.4067C39.2238 3.6186 14.7031 1.50551 14.7031 14.4067C14.7031 27.3079 37.6764 15.074 37.6764 28.9761C37.6764 42.8783 14.7031 44.769 14.7031 28.9761" stroke="black" stroke-width="7" stroke-linecap="round"/>
</g>
</g>
<defs>
<filter id="filter0_d_9_200" x="0.75" y="0.5" width="319.99" height="63.8262" filterUnits="userSpaceOnUse" color-interpolation-filters="sRGB">
<feFlood flood-opacity="0" result="BackgroundImageFix"/>
<feColorMatrix in="SourceAlpha" type="matrix" values="0 0 0 0 0 0 0 0 0 0 0 0 0 0 0 0 0 0 127 0" result="hardAlpha"/>
<feOffset dy="4"/>
<feGaussianBlur stdDeviation="2"/>
<feComposite in2="hardAlpha" operator="out"/>
<feColorMatrix type="matrix" values="0 0 0 0 0 0 0 0 0 0 0 0 0 0 0 0 0 0 0.25 0"/>
<feBlend mode="normal" in2="BackgroundImageFix" result="effect1_dropShadow_9_200"/>
<feBlend mode="normal" in="SourceGraphic" in2="effect1_dropShadow_9_200" result="shape"/>
</filter>
<filter id="filter1_i_9_200" x="4.75" y="0.5" width="45.3579" height="57.6243" filterUnits="userSpaceOnUse" color-interpolation-filters="sRGB">
<feFlood flood-opacity="0" result="BackgroundImageFix"/>
<feBlend mode="normal" in="SourceGraphic" in2="BackgroundImageFix" result="shape"/>
<feColorMatrix in="SourceAlpha" type="matrix" values="0 0 0 0 0 0 0 0 0 0 0 0 0 0 0 0 0 0 127 0" result="hardAlpha"/>
<feOffset dx="3.59623" dy="1.79811"/>
<feGaussianBlur stdDeviation="3.29654"/>
<feComposite in2="hardAlpha" operator="arithmetic" k2="-1" k3="1"/>
<feColorMatrix type="matrix" values="0 0 0 0 0.329412 0 0 0 0 0.396078 0 0 0 0 1 0 0 0 1 0"/>
<feBlend mode="normal" in2="shape" result="effect1_innerShadow_9_200"/>
</filter>
<filter id="filter2_i_9_200" x="11.2031" y="2.00562" width="35.1167" height="43.4155" filterUnits="userSpaceOnUse" color-interpolation-filters="sRGB">
<feFlood flood-opacity="0" result="BackgroundImageFix"/>
<feBlend mode="normal" in="SourceGraphic" in2="BackgroundImageFix" result="shape"/>
<feColorMatrix in="SourceAlpha" type="matrix" values="0 0 0 0 0 0 0 0 0 0 0 0 0 0 0 0 0 0 127 0" result="hardAlpha"/>
<feOffset dx="3.59623" dy="1.79811"/>
<feGaussianBlur stdDeviation="3.29654"/>
<feComposite in2="hardAlpha" operator="arithmetic" k2="-1" k3="1"/>
<feColorMatrix type="matrix" values="0 0 0 0 0.329412 0 0 0 0 0.396078 0 0 0 0 1 0 0 0 1 0"/>
<feBlend mode="normal" in2="shape" result="effect1_innerShadow_9_200"/>
</filter>
</defs>
</svg>
