<svg width="164" height="222" viewBox="0 0 164 222" fill="none" xmlns="http://www.w3.org/2000/svg">
<g opacity="0.13">
<g filter="url(#filter0_i_12_238)">
<path d="M75.6991 128.59C54.599 128.084 68.7314 180.833 103.788 192.537C116.696 201.397 142.002 199.748 159.693 188.92L231.573 144.929L124.529 -29.9751L52.65 14.0158C37.8949 23.046 30.7692 40.5688 32.2719 57.6321C33.0769 64.3782 33.9765 67.5774 35.8638 72.9187" stroke="black" stroke-width="25" stroke-linecap="round"/>
</g>
<g filter="url(#filter1_i_12_238)">
<path d="M36.3915 80.208C12.7403 41.563 95.9453 -19.7639 124.229 26.4505C152.513 72.6649 43.3974 79.2057 73.8756 129.006C104.354 178.806 190.793 135.214 156.17 78.6409" stroke="black" stroke-width="26" stroke-linecap="round"/>
</g>
</g>
<defs>
<filter id="filter0_i_12_238" x="9.57764" y="-47.1619" width="239.182" height="265.456" filterUnits="userSpaceOnUse" color-interpolation-filters="sRGB">
<feFlood flood-opacity="0" result="BackgroundImageFix"/>
<feBlend mode="normal" in="SourceGraphic" in2="BackgroundImageFix" result="shape"/>
<feColorMatrix in="SourceAlpha" type="matrix" values="0 0 0 0 0 0 0 0 0 0 0 0 0 0 0 0 0 0 127 0" result="hardAlpha"/>
<feOffset dx="-10" dy="7.55172"/>
<feGaussianBlur stdDeviation="6"/>
<feComposite in2="hardAlpha" operator="arithmetic" k2="-1" k3="1"/>
<feColorMatrix type="matrix" values="0 0 0 0 0.607843 0 0 0 0 0.694118 0 0 0 0 1 0 0 0 1 0"/>
<feBlend mode="normal" in2="shape" result="effect1_innerShadow_12_238"/>
</filter>
<filter id="filter1_i_12_238" x="17.2119" y="-3.08447" width="160.008" height="172.833" filterUnits="userSpaceOnUse" color-interpolation-filters="sRGB">
<feFlood flood-opacity="0" result="BackgroundImageFix"/>
<feBlend mode="normal" in="SourceGraphic" in2="BackgroundImageFix" result="shape"/>
<feColorMatrix in="SourceAlpha" type="matrix" values="0 0 0 0 0 0 0 0 0 0 0 0 0 0 0 0 0 0 127 0" result="hardAlpha"/>
<feOffset dx="-2" dy="6"/>
<feGaussianBlur stdDeviation="4.5"/>
<feComposite in2="hardAlpha" operator="arithmetic" k2="-1" k3="1"/>
<feColorMatrix type="matrix" values="0 0 0 0 0.329412 0 0 0 0 0.396078 0 0 0 0 1 0 0 0 1 0"/>
<feBlend mode="normal" in2="shape" result="effect1_innerShadow_12_238"/>
</filter>
</defs>
</svg>
